<svg id="图层_1" data-name="图层 1" xmlns="http://www.w3.org/2000/svg" viewBox="0 0 128 128"><defs><style>.cls-1{fill:#6d33b9;}.cls-2{fill:#fecd05;}.cls-3{fill:#562790;}</style></defs><path class="cls-1" d="M51.61,126.38c-11,0-19.24-8.11-21.5-21.16L24,80.08a.43.43,0,0,0,0-.11c-.95-5.64.28-10.64,3.55-14.51,3.91-4.63,10.69-7,18-7.39l34.3-2.19h.09c7.71,0,14.6,2.86,18.45,7.61,3.13,3.86,4.17,8.83,3,14.38l-5.43,26.68c-2.39,12.81-10.83,21.11-21.5,21.11Z"/><path class="cls-1" d="M46.88,126.7c-10.6,0-18.56-7.85-20.77-20.5L19.93,81v0c-.89-5.19.13-9.66,3-13.29,3.65-4.54,10.09-7.37,17.67-7.76L75,57.66h0C82.56,57.66,89.26,60.4,93,65c3,3.69,4,8.45,2.84,13.77l-5.44,26.7C88.06,117.91,79.91,126,69.61,126l-22.7.73Z"/><path class="cls-2" d="M68.75,122.14l-21,.67c-9.9,0-16.14-7.61-17.93-17.92l-5.7-23.34a.36.36,0,0,1,0-.1C22,69.54,32.21,64.08,42,63.58l31.78-2h.09c9.88,0,20.46,5.69,17.88,17.92l-5,24.75C84.9,113.74,78.65,122.14,68.75,122.14Z"/><path class="cls-1" d="M66.39,25.63c-1.11,1.57-2.17,3.15-3.15,4.71a1.15,1.15,0,0,1-2-.18C58.66,24,55,18.61,49.65,16.63a1.15,1.15,0,0,1,.25-2.23c7.06-.61,12.47,3.83,16.52,9.93A1.16,1.16,0,0,1,66.39,25.63Z"/><path class="cls-1" d="M71.82,36.24c-1.73,3-3.18,5.8-4.37,8.32a1.15,1.15,0,0,1-2.17-.27,81,81,0,0,0-2.34-9.36A1.16,1.16,0,0,1,63,34c1.15-1.94,2.4-3.91,3.73-5.87a1.16,1.16,0,0,1,2,.12,68.22,68.22,0,0,1,3.17,7A1.17,1.17,0,0,1,71.82,36.24Z"/><path class="cls-1" d="M75.72,53.9l-7.91.46a1.14,1.14,0,0,1-1.21-1c0-.46-.11-1-.19-1.76a1.11,1.11,0,0,1,.07-.57,107.1,107.1,0,0,1,5.1-10.84,1.15,1.15,0,0,1,2.11.18,107.39,107.39,0,0,1,3.1,12.21A1.15,1.15,0,0,1,75.72,53.9Z"/><path class="cls-1" d="M48,55.53l-4.78.28a1.16,1.16,0,0,1-1.21-1c-.56-4.27-3.17-20.17-11.22-24.62A1.15,1.15,0,0,1,31.4,28C42.72,29,47.85,48.8,49,54.14A1.15,1.15,0,0,1,48,55.53Z"/><path class="cls-1" d="M118.37,2.48a1.15,1.15,0,0,1-.26,2.27c-22.68-.4-37.55,16.72-46,31A108.31,108.31,0,0,0,65.92,48c-1.2,2.79-2,4.91-2.33,5.95a1.14,1.14,0,0,1-1,.77l-7.8.46a1.15,1.15,0,0,1-1.15-1.55,126.22,126.22,0,0,1,9.16-19.14c1.52-2.57,3.2-5.22,5-7.83C78.61,11.46,95.34-3,118.37,2.48Z"/><path class="cls-1" d="M118.37,2.48a1.15,1.15,0,0,1-.26,2.27c-22.68-.4-37.55,16.72-46,31A108.31,108.31,0,0,0,65.92,48c-1.2,2.79-2,4.91-2.33,5.95a1.14,1.14,0,0,1-1,.77l-7.8.46a1.15,1.15,0,0,1-1.15-1.55,126.22,126.22,0,0,1,9.16-19.14c1.52-2.57,3.2-5.22,5-7.83C78.61,11.46,95.34-3,118.37,2.48Z"/><path class="cls-3" d="M39.7,92.49l-.17-1.56a1.17,1.17,0,0,1,.63-1.16l3-1.49a1.14,1.14,0,0,0-.23-2.14l-3.24-.81a1.15,1.15,0,0,1-.86-1l-.17-1.55a1.15,1.15,0,0,1,1.44-1.24l10.7,2.91a1.16,1.16,0,0,1,.85,1l.17,1.6a1.12,1.12,0,0,1-.6,1.14l-9.8,5.2A1.16,1.16,0,0,1,39.7,92.49Z"/><path class="cls-3" d="M74.37,78.83l.17,1.54a1.16,1.16,0,0,1-.63,1.16l-3,1.49a1.15,1.15,0,0,0,.23,2.14l3.25.81a1.16,1.16,0,0,1,.86,1l.17,1.57A1.15,1.15,0,0,1,74,89.77l-10.7-2.9a1.15,1.15,0,0,1-.84-1l-.18-1.6a1.16,1.16,0,0,1,.6-1.14l9.81-5.2A1.15,1.15,0,0,1,74.37,78.83Z"/><path class="cls-3" d="M47.34,96a1.17,1.17,0,0,1,1.31.77c1.31,3.5,5.83,5.53,10.66,4.6s8.26-4.49,8.18-8.24a1.18,1.18,0,0,1,.93-1.2h0A1.14,1.14,0,0,1,69.79,93c.15,4.88-4.08,9.5-10.05,10.65a14.25,14.25,0,0,1-2.73.26c-4.87,0-9.1-2.51-10.53-6.36A1.15,1.15,0,0,1,47.34,96Z"/></svg>